<svg width="489" height="93" viewBox="0 0 489 93" fill="none" xmlns="http://www.w3.org/2000/svg">
<path d="M294.408 29.969V40H293.05V35.436H287.639V40H286.281V29.969H287.639V34.442H293.05V29.969H294.408ZM300.316 36.808C299.742 36.8267 299.252 36.8733 298.846 36.948C298.445 37.018 298.116 37.1113 297.859 37.228C297.607 37.3447 297.423 37.4823 297.306 37.641C297.194 37.7997 297.138 37.977 297.138 38.173C297.138 38.3597 297.169 38.5207 297.229 38.656C297.29 38.7913 297.372 38.9033 297.474 38.992C297.582 39.076 297.705 39.139 297.845 39.181C297.99 39.2183 298.144 39.237 298.307 39.237C298.527 39.237 298.727 39.216 298.909 39.174C299.091 39.1273 299.262 39.062 299.42 38.978C299.584 38.894 299.738 38.7937 299.882 38.677C300.032 38.5603 300.176 38.4273 300.316 38.278V36.808ZM296.291 33.91C296.683 33.532 297.106 33.2497 297.558 33.063C298.011 32.8763 298.513 32.783 299.063 32.783C299.46 32.783 299.812 32.8483 300.12 32.979C300.428 33.1097 300.687 33.2917 300.897 33.525C301.107 33.7583 301.266 34.0407 301.373 34.372C301.481 34.7033 301.534 35.0673 301.534 35.464V40H300.981C300.86 40 300.767 39.9813 300.701 39.944C300.636 39.902 300.585 39.8227 300.547 39.706L300.407 39.034C300.221 39.2067 300.039 39.3607 299.861 39.496C299.684 39.6267 299.497 39.7387 299.301 39.832C299.105 39.9207 298.895 39.9883 298.671 40.035C298.452 40.0863 298.207 40.112 297.936 40.112C297.661 40.112 297.402 40.0747 297.159 40C296.917 39.9207 296.704 39.804 296.522 39.65C296.345 39.496 296.203 39.3023 296.095 39.069C295.993 38.831 295.941 38.551 295.941 38.229C295.941 37.949 296.018 37.6807 296.172 37.424C296.326 37.1627 296.576 36.9317 296.921 36.731C297.267 36.5303 297.717 36.367 298.272 36.241C298.828 36.1103 299.509 36.0357 300.316 36.017V35.464C300.316 34.9133 300.197 34.498 299.959 34.218C299.721 33.9333 299.374 33.791 298.916 33.791C298.608 33.791 298.349 33.8307 298.139 33.91C297.934 33.9847 297.754 34.071 297.6 34.169C297.451 34.2623 297.32 34.3487 297.208 34.428C297.101 34.5027 296.994 34.54 296.886 34.54C296.802 34.54 296.73 34.519 296.669 34.477C296.609 34.4303 296.557 34.3743 296.515 34.309L296.291 33.91ZM308.318 39.09V33.889H306.071C306.025 34.617 305.959 35.261 305.875 35.821C305.791 36.381 305.693 36.8733 305.581 37.298C305.474 37.718 305.353 38.075 305.217 38.369C305.087 38.663 304.949 38.9033 304.804 39.09H308.318ZM310.824 39.055V42.058C310.824 42.1793 310.789 42.2727 310.719 42.338C310.654 42.408 310.568 42.443 310.46 42.443H309.697V40H303.733V42.086C303.733 42.1747 303.705 42.2563 303.649 42.331C303.598 42.4057 303.512 42.443 303.39 42.443H302.606V39.09H302.837C303.001 39.09 303.162 39.062 303.32 39.006C303.484 38.95 303.64 38.845 303.789 38.691C303.939 38.5323 304.079 38.3107 304.209 38.026C304.345 37.7413 304.466 37.3703 304.573 36.913C304.681 36.4557 304.774 35.9003 304.853 35.247C304.933 34.589 304.996 33.8097 305.042 32.909H309.529V39.055H310.824ZM316.71 35.681C316.71 35.3917 316.668 35.128 316.584 34.89C316.504 34.6473 316.385 34.4397 316.227 34.267C316.073 34.0897 315.884 33.9543 315.66 33.861C315.436 33.763 315.181 33.714 314.897 33.714C314.299 33.714 313.826 33.889 313.476 34.239C313.13 34.5843 312.916 35.065 312.832 35.681H316.71ZM317.718 39.006C317.564 39.1927 317.379 39.356 317.165 39.496C316.95 39.6313 316.719 39.7433 316.472 39.832C316.229 39.9207 315.977 39.986 315.716 40.028C315.454 40.0747 315.195 40.098 314.939 40.098C314.449 40.098 313.996 40.0163 313.581 39.853C313.17 39.685 312.813 39.4423 312.51 39.125C312.211 38.803 311.978 38.4063 311.81 37.935C311.642 37.4637 311.558 36.9223 311.558 36.311C311.558 35.8163 311.632 35.3543 311.782 34.925C311.936 34.4957 312.155 34.1247 312.44 33.812C312.724 33.4947 313.072 33.2473 313.483 33.07C313.893 32.888 314.355 32.797 314.869 32.797C315.293 32.797 315.685 32.8693 316.045 33.014C316.409 33.154 316.721 33.3593 316.983 33.63C317.249 33.896 317.456 34.2273 317.606 34.624C317.755 35.016 317.83 35.464 317.83 35.968C317.83 36.164 317.809 36.2947 317.767 36.36C317.725 36.4253 317.645 36.458 317.529 36.458H312.79C312.804 36.906 312.864 37.2957 312.972 37.627C313.084 37.9583 313.238 38.236 313.434 38.46C313.63 38.6793 313.863 38.845 314.134 38.957C314.404 39.0643 314.708 39.118 315.044 39.118C315.356 39.118 315.625 39.083 315.849 39.013C316.077 38.9383 316.273 38.859 316.437 38.775C316.6 38.691 316.735 38.614 316.843 38.544C316.955 38.4693 317.05 38.432 317.13 38.432C317.232 38.432 317.312 38.4717 317.368 38.551L317.718 39.006ZM329.175 40H328.307C328.083 40 327.911 39.965 327.789 39.895C327.673 39.825 327.582 39.7153 327.516 39.566L326.137 37.361C325.909 36.997 325.58 36.815 325.15 36.815H324.436V40.007H323.225V36.815H322.518C322.308 36.815 322.117 36.8617 321.944 36.955C321.776 37.0483 321.639 37.1837 321.531 37.361L320.152 39.566C320.082 39.7153 319.987 39.825 319.865 39.895C319.749 39.965 319.578 40 319.354 40H318.493L320.355 37.067C320.477 36.8617 320.614 36.696 320.768 36.57C320.922 36.444 321.111 36.3483 321.335 36.283C321.158 36.227 321.006 36.1453 320.88 36.038C320.759 35.926 320.645 35.7837 320.537 35.611L318.689 32.909H319.669C319.791 32.909 319.9 32.9417 319.998 33.007C320.096 33.0677 320.173 33.1517 320.229 33.259L321.734 35.499C321.837 35.653 321.961 35.772 322.105 35.856C322.25 35.9353 322.42 35.975 322.616 35.975H323.225V32.909H324.436V35.975H325.031C325.428 35.975 325.727 35.8163 325.927 35.499L327.432 33.259C327.488 33.1517 327.565 33.0677 327.663 33.007C327.766 32.9417 327.878 32.909 327.999 32.909H328.979L327.131 35.611C327.024 35.7837 326.907 35.926 326.781 36.038C326.66 36.1453 326.511 36.227 326.333 36.283C326.557 36.3483 326.746 36.444 326.9 36.57C327.054 36.696 327.192 36.8617 327.313 37.067L329.175 40ZM336.247 32.909V40H334.994V36.682H331.592V40H330.339V32.909H331.592V35.737H334.994V32.909H336.247ZM340.95 39.09C341.202 39.09 341.419 39.0597 341.601 38.999C341.788 38.9337 341.942 38.845 342.063 38.733C342.185 38.6163 342.276 38.481 342.336 38.327C342.397 38.173 342.427 38.005 342.427 37.823C342.427 37.655 342.402 37.4987 342.35 37.354C342.299 37.2047 342.213 37.074 342.091 36.962C341.975 36.85 341.821 36.7613 341.629 36.696C341.438 36.6307 341.205 36.598 340.929 36.598H339.417V39.09H340.95ZM340.929 35.688C341.419 35.688 341.83 35.7463 342.161 35.863C342.497 35.9797 342.766 36.136 342.966 36.332C343.172 36.528 343.319 36.7543 343.407 37.011C343.496 37.2677 343.54 37.5337 343.54 37.809C343.54 38.1263 343.484 38.4203 343.372 38.691C343.26 38.957 343.095 39.188 342.875 39.384C342.656 39.5753 342.385 39.727 342.063 39.839C341.741 39.9463 341.37 40 340.95 40H338.227V32.909H339.417V35.688H340.929ZM346.347 32.909V40H345.101V32.909H346.347ZM354.414 32.909V40H353.168V35.184C353.168 35.0907 353.172 34.9903 353.182 34.883C353.191 34.7757 353.203 34.6683 353.217 34.561C353.175 34.6543 353.133 34.7407 353.091 34.82C353.049 34.8993 353.004 34.9717 352.958 35.037L349.535 39.692C349.483 39.7667 349.418 39.839 349.339 39.909C349.264 39.9743 349.18 40.007 349.087 40.007H348.331V32.916H349.584V37.732C349.584 37.8207 349.579 37.9187 349.57 38.026C349.56 38.1287 349.549 38.2337 349.535 38.341C349.577 38.2523 349.619 38.1707 349.661 38.096C349.703 38.0167 349.745 37.9443 349.787 37.879L353.21 33.224C353.261 33.1493 353.326 33.0793 353.406 33.014C353.485 32.944 353.571 32.909 353.665 32.909H354.414ZM351.453 31.194C351.644 31.194 351.805 31.173 351.936 31.131C352.066 31.0843 352.171 31.012 352.251 30.914C352.335 30.816 352.395 30.69 352.433 30.536C352.47 30.382 352.489 30.193 352.489 29.969H353.217C353.305 29.969 353.373 30.0087 353.42 30.088C353.466 30.1673 353.49 30.2537 353.49 30.347C353.49 30.5803 353.443 30.7903 353.35 30.977C353.256 31.1637 353.121 31.3247 352.944 31.46C352.771 31.5907 352.559 31.691 352.307 31.761C352.055 31.831 351.77 31.866 351.453 31.866C351.135 31.866 350.851 31.831 350.599 31.761C350.347 31.691 350.132 31.5907 349.955 31.46C349.782 31.3247 349.649 31.1637 349.556 30.977C349.462 30.7903 349.416 30.5803 349.416 30.347C349.416 30.2537 349.439 30.1673 349.486 30.088C349.532 30.0087 349.6 29.969 349.689 29.969H350.417C350.417 30.193 350.435 30.382 350.473 30.536C350.51 30.69 350.568 30.816 350.648 30.914C350.732 31.012 350.839 31.0843 350.97 31.131C351.1 31.173 351.261 31.194 351.453 31.194ZM364.901 34.169C364.863 34.2203 364.826 34.26 364.789 34.288C364.751 34.316 364.7 34.33 364.635 34.33C364.565 34.33 364.488 34.302 364.404 34.246C364.32 34.1853 364.215 34.12 364.089 34.05C363.967 33.98 363.816 33.917 363.634 33.861C363.456 33.8003 363.237 33.77 362.976 33.77C362.626 33.77 362.318 33.833 362.052 33.959C361.786 34.0803 361.562 34.2577 361.38 34.491C361.202 34.7243 361.067 35.0067 360.974 35.338C360.885 35.6693 360.841 36.0403 360.841 36.451C360.841 36.8803 360.89 37.263 360.988 37.599C361.086 37.9303 361.223 38.2103 361.401 38.439C361.583 38.663 361.8 38.8357 362.052 38.957C362.308 39.0737 362.595 39.132 362.913 39.132C363.216 39.132 363.466 39.097 363.662 39.027C363.858 38.9523 364.019 38.8707 364.145 38.782C364.275 38.6933 364.383 38.614 364.467 38.544C364.555 38.4693 364.642 38.432 364.726 38.432C364.828 38.432 364.908 38.4717 364.964 38.551L365.314 39.006C365.16 39.1973 364.985 39.3607 364.789 39.496C364.593 39.6313 364.38 39.7457 364.152 39.839C363.928 39.9277 363.692 39.993 363.445 40.035C363.197 40.077 362.945 40.098 362.689 40.098C362.245 40.098 361.832 40.0163 361.45 39.853C361.072 39.6897 360.743 39.454 360.463 39.146C360.183 38.8333 359.963 38.4507 359.805 37.998C359.646 37.5453 359.567 37.0297 359.567 36.451C359.567 35.9237 359.639 35.436 359.784 34.988C359.933 34.54 360.148 34.155 360.428 33.833C360.712 33.5063 361.06 33.252 361.471 33.07C361.886 32.888 362.362 32.797 362.899 32.797C363.398 32.797 363.837 32.8787 364.215 33.042C364.597 33.2007 364.936 33.427 365.23 33.721L364.901 34.169ZM371.274 35.681C371.274 35.3917 371.232 35.128 371.148 34.89C371.069 34.6473 370.95 34.4397 370.791 34.267C370.637 34.0897 370.448 33.9543 370.224 33.861C370 33.763 369.746 33.714 369.461 33.714C368.864 33.714 368.39 33.889 368.04 34.239C367.695 34.5843 367.48 35.065 367.396 35.681H371.274ZM372.282 39.006C372.128 39.1927 371.944 39.356 371.729 39.496C371.514 39.6313 371.283 39.7433 371.036 39.832C370.793 39.9207 370.541 39.986 370.28 40.028C370.019 40.0747 369.76 40.098 369.503 40.098C369.013 40.098 368.56 40.0163 368.145 39.853C367.734 39.685 367.377 39.4423 367.074 39.125C366.775 38.803 366.542 38.4063 366.374 37.935C366.206 37.4637 366.122 36.9223 366.122 36.311C366.122 35.8163 366.197 35.3543 366.346 34.925C366.5 34.4957 366.719 34.1247 367.004 33.812C367.289 33.4947 367.636 33.2473 368.047 33.07C368.458 32.888 368.92 32.797 369.433 32.797C369.858 32.797 370.25 32.8693 370.609 33.014C370.973 33.154 371.286 33.3593 371.547 33.63C371.813 33.896 372.021 34.2273 372.17 34.624C372.319 35.016 372.394 35.464 372.394 35.968C372.394 36.164 372.373 36.2947 372.331 36.36C372.289 36.4253 372.21 36.458 372.093 36.458H367.354C367.368 36.906 367.429 37.2957 367.536 37.627C367.648 37.9583 367.802 38.236 367.998 38.46C368.194 38.6793 368.427 38.845 368.698 38.957C368.969 39.0643 369.272 39.118 369.608 39.118C369.921 39.118 370.189 39.083 370.413 39.013C370.642 38.9383 370.838 38.859 371.001 38.775C371.164 38.691 371.3 38.614 371.407 38.544C371.519 38.4693 371.615 38.432 371.694 38.432C371.797 38.432 371.876 38.4717 371.932 38.551L372.282 39.006ZM375.178 38.292C375.406 38.6 375.656 38.817 375.927 38.943C376.197 39.069 376.501 39.132 376.837 39.132C377.499 39.132 378.008 38.8963 378.363 38.425C378.717 37.9537 378.895 37.2817 378.895 36.409C378.895 35.947 378.853 35.5503 378.769 35.219C378.689 34.8877 378.573 34.617 378.419 34.407C378.265 34.1923 378.076 34.036 377.852 33.938C377.628 33.84 377.373 33.791 377.089 33.791C376.683 33.791 376.326 33.8843 376.018 34.071C375.714 34.2577 375.434 34.5213 375.178 34.862V38.292ZM375.115 34.008C375.413 33.6393 375.759 33.343 376.151 33.119C376.543 32.895 376.991 32.783 377.495 32.783C377.905 32.783 378.276 32.8623 378.608 33.021C378.939 33.175 379.221 33.406 379.455 33.714C379.688 34.0173 379.868 34.3953 379.994 34.848C380.12 35.3007 380.183 35.821 380.183 36.409C380.183 36.9317 380.113 37.4193 379.972 37.872C379.833 38.32 379.63 38.7097 379.364 39.041C379.102 39.3677 378.78 39.6267 378.398 39.818C378.02 40.0047 377.593 40.098 377.117 40.098C376.683 40.098 376.309 40.0257 375.997 39.881C375.689 39.7317 375.416 39.5263 375.178 39.265V42.401H373.925V32.909H374.674C374.851 32.909 374.961 32.9953 375.003 33.168L375.115 34.008ZM384.481 39.125C384.948 39.125 385.317 39.0177 385.587 38.803C385.858 38.5837 385.993 38.285 385.993 37.907C385.993 37.739 385.968 37.5873 385.916 37.452C385.865 37.312 385.781 37.1907 385.664 37.088C385.548 36.9853 385.391 36.906 385.195 36.85C385.004 36.794 384.768 36.766 384.488 36.766H382.955V39.125H384.481ZM382.955 33.749V35.975H384.32C384.526 35.975 384.715 35.947 384.887 35.891C385.065 35.8303 385.216 35.7487 385.342 35.646C385.468 35.5387 385.566 35.4127 385.636 35.268C385.706 35.1187 385.741 34.9553 385.741 34.778C385.741 34.6473 385.718 34.5213 385.671 34.4C385.625 34.274 385.545 34.1643 385.433 34.071C385.321 33.973 385.174 33.896 384.992 33.84C384.81 33.7793 384.586 33.749 384.32 33.749H382.955ZM384.355 32.909C384.794 32.909 385.17 32.9533 385.482 33.042C385.795 33.1307 386.052 33.252 386.252 33.406C386.453 33.5553 386.6 33.7327 386.693 33.938C386.787 34.1433 386.833 34.3627 386.833 34.596C386.833 34.75 386.812 34.911 386.77 35.079C386.728 35.247 386.654 35.408 386.546 35.562C386.444 35.716 386.301 35.856 386.119 35.982C385.942 36.1033 385.718 36.199 385.447 36.269C385.989 36.3623 386.406 36.5513 386.7 36.836C386.994 37.116 387.141 37.487 387.141 37.949C387.141 38.2943 387.071 38.5953 386.931 38.852C386.796 39.104 386.607 39.3163 386.364 39.489C386.126 39.6617 385.846 39.79 385.524 39.874C385.202 39.958 384.857 40 384.488 40H381.758V32.909H384.355ZM394.787 32.909V40H393.541V35.184C393.541 35.0907 393.545 34.9903 393.555 34.883C393.564 34.7757 393.576 34.6683 393.59 34.561C393.548 34.6543 393.506 34.7407 393.464 34.82C393.422 34.8993 393.377 34.9717 393.331 35.037L389.908 39.692C389.856 39.7667 389.791 39.839 389.712 39.909C389.637 39.9743 389.553 40.007 389.46 40.007H388.704V32.916H389.957V37.732C389.957 37.8207 389.952 37.9187 389.943 38.026C389.933 38.1287 389.922 38.2337 389.908 38.341C389.95 38.2523 389.992 38.1707 390.034 38.096C390.076 38.0167 390.118 37.9443 390.16 37.879L393.583 33.224C393.634 33.1493 393.699 33.0793 393.779 33.014C393.858 32.944 393.944 32.909 394.038 32.909H394.787ZM401.692 34.169C401.654 34.2203 401.617 34.26 401.58 34.288C401.542 34.316 401.491 34.33 401.426 34.33C401.356 34.33 401.279 34.302 401.195 34.246C401.111 34.1853 401.006 34.12 400.88 34.05C400.758 33.98 400.607 33.917 400.425 33.861C400.247 33.8003 400.028 33.77 399.767 33.77C399.417 33.77 399.109 33.833 398.843 33.959C398.577 34.0803 398.353 34.2577 398.171 34.491C397.993 34.7243 397.858 35.0067 397.765 35.338C397.676 35.6693 397.632 36.0403 397.632 36.451C397.632 36.8803 397.681 37.263 397.779 37.599C397.877 37.9303 398.014 38.2103 398.192 38.439C398.374 38.663 398.591 38.8357 398.843 38.957C399.099 39.0737 399.386 39.132 399.704 39.132C400.007 39.132 400.257 39.097 400.453 39.027C400.649 38.9523 400.81 38.8707 400.936 38.782C401.066 38.6933 401.174 38.614 401.258 38.544C401.346 38.4693 401.433 38.432 401.517 38.432C401.619 38.432 401.699 38.4717 401.755 38.551L402.105 39.006C401.951 39.1973 401.776 39.3607 401.58 39.496C401.384 39.6313 401.171 39.7457 400.943 39.839C400.719 39.9277 400.483 39.993 400.236 40.035C399.988 40.077 399.736 40.098 399.48 40.098C399.036 40.098 398.623 40.0163 398.241 39.853C397.863 39.6897 397.534 39.454 397.254 39.146C396.974 38.8333 396.754 38.4507 396.596 37.998C396.437 37.5453 396.358 37.0297 396.358 36.451C396.358 35.9237 396.43 35.436 396.575 34.988C396.724 34.54 396.939 34.155 397.219 33.833C397.503 33.5063 397.851 33.252 398.262 33.07C398.677 32.888 399.153 32.797 399.69 32.797C400.189 32.797 400.628 32.8787 401.006 33.042C401.388 33.2007 401.727 33.427 402.021 33.721L401.692 34.169ZM289.83 54.808C289.256 54.8267 288.766 54.8733 288.36 54.948C287.959 55.018 287.63 55.1113 287.373 55.228C287.121 55.3447 286.937 55.4823 286.82 55.641C286.708 55.7997 286.652 55.977 286.652 56.173C286.652 56.3597 286.682 56.5207 286.743 56.656C286.804 56.7913 286.885 56.9033 286.988 56.992C287.095 57.076 287.219 57.139 287.359 57.181C287.504 57.2183 287.658 57.237 287.821 57.237C288.04 57.237 288.241 57.216 288.423 57.174C288.605 57.1273 288.775 57.062 288.934 56.978C289.097 56.894 289.251 56.7937 289.396 56.677C289.545 56.5603 289.69 56.4273 289.83 56.278V54.808ZM285.805 51.91C286.197 51.532 286.619 51.2497 287.072 51.063C287.525 50.8763 288.026 50.783 288.577 50.783C288.974 50.783 289.326 50.8483 289.634 50.979C289.942 51.1097 290.201 51.2917 290.411 51.525C290.621 51.7583 290.78 52.0407 290.887 52.372C290.994 52.7033 291.048 53.0673 291.048 53.464V58H290.495C290.374 58 290.28 57.9813 290.215 57.944C290.15 57.902 290.098 57.8227 290.061 57.706L289.921 57.034C289.734 57.2067 289.552 57.3607 289.375 57.496C289.198 57.6267 289.011 57.7387 288.815 57.832C288.619 57.9207 288.409 57.9883 288.185 58.035C287.966 58.0863 287.721 58.112 287.45 58.112C287.175 58.112 286.916 58.0747 286.673 58C286.43 57.9207 286.218 57.804 286.036 57.65C285.859 57.496 285.716 57.3023 285.609 57.069C285.506 56.831 285.455 56.551 285.455 56.229C285.455 55.949 285.532 55.6807 285.686 55.424C285.84 55.1627 286.09 54.9317 286.435 54.731C286.78 54.5303 287.231 54.367 287.786 54.241C288.341 54.1103 289.023 54.0357 289.83 54.017V53.464C289.83 52.9133 289.711 52.498 289.473 52.218C289.235 51.9333 288.887 51.791 288.43 51.791C288.122 51.791 287.863 51.8307 287.653 51.91C287.448 51.9847 287.268 52.071 287.114 52.169C286.965 52.2623 286.834 52.3487 286.722 52.428C286.615 52.5027 286.507 52.54 286.4 52.54C286.316 52.54 286.244 52.519 286.183 52.477C286.122 52.4303 286.071 52.3743 286.029 52.309L285.805 51.91ZM298.854 50.909V58H297.601V54.682H294.199V58H292.946V50.909H294.199V53.737H297.601V50.909H298.854ZM304.678 54.808C304.104 54.8267 303.614 54.8733 303.208 54.948C302.806 55.018 302.477 55.1113 302.221 55.228C301.969 55.3447 301.784 55.4823 301.668 55.641C301.556 55.7997 301.5 55.977 301.5 56.173C301.5 56.3597 301.53 56.5207 301.591 56.656C301.651 56.7913 301.733 56.9033 301.836 56.992C301.943 57.076 302.067 57.139 302.207 57.181C302.351 57.2183 302.505 57.237 302.669 57.237C302.888 57.237 303.089 57.216 303.271 57.174C303.453 57.1273 303.623 57.062 303.782 56.978C303.945 56.894 304.099 56.7937 304.244 56.677C304.393 56.5603 304.538 56.4273 304.678 56.278V54.808ZM300.653 51.91C301.045 51.532 301.467 51.2497 301.92 51.063C302.372 50.8763 302.874 50.783 303.425 50.783C303.821 50.783 304.174 50.8483 304.482 50.979C304.79 51.1097 305.049 51.2917 305.259 51.525C305.469 51.7583 305.627 52.0407 305.735 52.372C305.842 52.7033 305.896 53.0673 305.896 53.464V58H305.343C305.221 58 305.128 57.9813 305.063 57.944C304.997 57.902 304.946 57.8227 304.909 57.706L304.769 57.034C304.582 57.2067 304.4 57.3607 304.223 57.496C304.045 57.6267 303.859 57.7387 303.663 57.832C303.467 57.9207 303.257 57.9883 303.033 58.035C302.813 58.0863 302.568 58.112 302.298 58.112C302.022 58.112 301.763 58.0747 301.521 58C301.278 57.9207 301.066 57.804 300.884 57.65C300.706 57.496 300.564 57.3023 300.457 57.069C300.354 56.831 300.303 56.551 300.303 56.229C300.303 55.949 300.38 55.6807 300.534 55.424C300.688 55.1627 300.937 54.9317 301.283 54.731C301.628 54.5303 302.078 54.367 302.634 54.241C303.189 54.1103 303.87 54.0357 304.678 54.017V53.464C304.678 52.9133 304.559 52.498 304.321 52.218C304.083 51.9333 303.735 51.791 303.278 51.791C302.97 51.791 302.711 51.8307 302.501 51.91C302.295 51.9847 302.116 52.071 301.962 52.169C301.812 52.2623 301.682 52.3487 301.57 52.428C301.462 52.5027 301.355 52.54 301.248 52.54C301.164 52.54 301.091 52.519 301.031 52.477C300.97 52.4303 300.919 52.3743 300.877 52.309L300.653 51.91ZM314.01 58H312.764V51.889H310.524C310.468 52.7897 310.384 53.569 310.272 54.227C310.16 54.8803 310.024 55.438 309.866 55.9C309.712 56.3573 309.537 56.7307 309.341 57.02C309.149 57.3047 308.946 57.5263 308.732 57.685C308.522 57.8437 308.302 57.951 308.074 58.007C307.85 58.063 307.626 58.091 307.402 58.091C307.005 58.091 306.807 58.028 306.807 57.902V57.111H307.171C307.329 57.111 307.49 57.083 307.654 57.027C307.817 56.971 307.976 56.8637 308.13 56.705C308.288 56.5463 308.44 56.3247 308.585 56.04C308.729 55.7507 308.86 55.3773 308.977 54.92C309.098 54.458 309.201 53.9003 309.285 53.247C309.373 52.589 309.441 51.8097 309.488 50.909H314.01V58ZM322.066 50.909V58H320.82V53.184C320.82 53.0907 320.825 52.9903 320.834 52.883C320.843 52.7757 320.855 52.6683 320.869 52.561C320.827 52.6543 320.785 52.7407 320.743 52.82C320.701 52.8993 320.657 52.9717 320.61 53.037L317.187 57.692C317.136 57.7667 317.07 57.839 316.991 57.909C316.916 57.9743 316.832 58.007 316.739 58.007H315.983V50.916H317.236V55.732C317.236 55.8207 317.231 55.9187 317.222 56.026C317.213 56.1287 317.201 56.2337 317.187 56.341C317.229 56.2523 317.271 56.1707 317.313 56.096C317.355 56.0167 317.397 55.9443 317.439 55.879L320.862 51.224C320.913 51.1493 320.979 51.0793 321.058 51.014C321.137 50.944 321.224 50.909 321.317 50.909H322.066ZM329.93 51.861H327.207V58H325.961V51.861H323.238V50.909H329.93V51.861ZM337.201 50.909V58H335.955V53.184C335.955 53.0907 335.96 52.9903 335.969 52.883C335.978 52.7757 335.99 52.6683 336.004 52.561C335.962 52.6543 335.92 52.7407 335.878 52.82C335.836 52.8993 335.792 52.9717 335.745 53.037L332.322 57.692C332.271 57.7667 332.205 57.839 332.126 57.909C332.051 57.9743 331.967 58.007 331.874 58.007H331.118V50.916H332.371V55.732C332.371 55.8207 332.366 55.9187 332.357 56.026C332.348 56.1287 332.336 56.2337 332.322 56.341C332.364 56.2523 332.406 56.1707 332.448 56.096C332.49 56.0167 332.532 55.9443 332.574 55.879L335.997 51.224C336.048 51.1493 336.114 51.0793 336.193 51.014C336.272 50.944 336.359 50.909 336.452 50.909H337.201ZM343.476 51.259C343.541 51.1563 343.627 51.0723 343.735 51.007C343.842 50.9417 343.956 50.909 344.078 50.909H345.051L343.21 53.611C343.098 53.7837 342.981 53.926 342.86 54.038C342.738 54.1453 342.589 54.2293 342.412 54.29C342.636 54.3507 342.825 54.4463 342.979 54.577C343.133 54.703 343.27 54.8663 343.392 55.067L345.254 58H344.386C344.162 58 343.989 57.9627 343.868 57.888C343.746 57.8133 343.641 57.706 343.553 57.566L342.174 55.361C341.954 54.997 341.625 54.815 341.187 54.815H340.424V58.007H339.171V50.909H340.424V53.975H341.096C341.469 53.975 341.761 53.8163 341.971 53.499L343.476 51.259ZM352.5 50.909V58H351.254V53.184C351.254 53.0907 351.258 52.9903 351.268 52.883C351.277 52.7757 351.289 52.6683 351.303 52.561C351.261 52.6543 351.219 52.7407 351.177 52.82C351.135 52.8993 351.09 52.9717 351.044 53.037L347.621 57.692C347.569 57.7667 347.504 57.839 347.425 57.909C347.35 57.9743 347.266 58.007 347.173 58.007H346.417V50.916H347.67V55.732C347.67 55.8207 347.665 55.9187 347.656 56.026C347.646 56.1287 347.635 56.2337 347.621 56.341C347.663 56.2523 347.705 56.1707 347.747 56.096C347.789 56.0167 347.831 55.9443 347.873 55.879L351.296 51.224C351.347 51.1493 351.412 51.0793 351.492 51.014C351.571 50.944 351.657 50.909 351.751 50.909H352.5ZM362.937 57.09V51.889H360.69C360.644 52.617 360.578 53.261 360.494 53.821C360.41 54.381 360.312 54.8733 360.2 55.298C360.093 55.718 359.972 56.075 359.836 56.369C359.706 56.663 359.568 56.9033 359.423 57.09H362.937ZM365.443 57.055V60.058C365.443 60.1793 365.408 60.2727 365.338 60.338C365.273 60.408 365.187 60.443 365.079 60.443H364.316V58H358.352V60.086C358.352 60.1747 358.324 60.2563 358.268 60.331C358.217 60.4057 358.131 60.443 358.009 60.443H357.225V57.09H357.456C357.62 57.09 357.781 57.062 357.939 57.006C358.103 56.95 358.259 56.845 358.408 56.691C358.558 56.5323 358.698 56.3107 358.828 56.026C358.964 55.7413 359.085 55.3703 359.192 54.913C359.3 54.4557 359.393 53.9003 359.472 53.247C359.552 52.589 359.615 51.8097 359.661 50.909H364.148V57.055H365.443ZM372.922 58H371.676V51.889H369.436C369.38 52.7897 369.296 53.569 369.184 54.227C369.072 54.8803 368.936 55.438 368.778 55.9C368.624 56.3573 368.449 56.7307 368.253 57.02C368.061 57.3047 367.858 57.5263 367.644 57.685C367.434 57.8437 367.214 57.951 366.986 58.007C366.762 58.063 366.538 58.091 366.314 58.091C365.917 58.091 365.719 58.028 365.719 57.902V57.111H366.083C366.241 57.111 366.402 57.083 366.566 57.027C366.729 56.971 366.888 56.8637 367.042 56.705C367.2 56.5463 367.352 56.3247 367.497 56.04C367.641 55.7507 367.772 55.3773 367.889 54.92C368.01 54.458 368.113 53.9003 368.197 53.247C368.285 52.589 368.353 51.8097 368.4 50.909H372.922V58ZM378.626 54.22V51.749H377.436C377.17 51.749 376.946 51.7887 376.764 51.868C376.582 51.9427 376.435 52.0407 376.323 52.162C376.216 52.2787 376.139 52.4117 376.092 52.561C376.046 52.7057 376.022 52.8503 376.022 52.995C376.022 53.3777 376.162 53.6787 376.442 53.898C376.722 54.1127 377.105 54.22 377.59 54.22H378.626ZM379.816 50.909V58H378.626V55.011H378.08C377.95 55.011 377.84 55.0227 377.751 55.046C377.667 55.0647 377.593 55.0927 377.527 55.13C377.467 55.1673 377.413 55.2163 377.366 55.277C377.32 55.333 377.271 55.3983 377.219 55.473L375.665 57.566C375.586 57.7153 375.488 57.825 375.371 57.895C375.259 57.965 375.094 58 374.874 58H374.006L376.064 55.326C376.232 55.046 376.454 54.8593 376.729 54.766C376.37 54.7193 376.067 54.6353 375.819 54.514C375.572 54.3927 375.369 54.2503 375.21 54.087C375.056 53.919 374.944 53.7347 374.874 53.534C374.804 53.3333 374.769 53.1303 374.769 52.925C374.769 52.6823 374.816 52.4397 374.909 52.197C375.007 51.9543 375.161 51.7397 375.371 51.553C375.581 51.3617 375.852 51.2077 376.183 51.091C376.519 50.9697 376.925 50.909 377.401 50.909H379.816ZM391.29 58H390.037V51.861H386.635V58H385.382V50.909H391.29V58ZM396.259 50.797C396.777 50.797 397.244 50.8833 397.659 51.056C398.075 51.2287 398.429 51.4737 398.723 51.791C399.017 52.1083 399.241 52.4933 399.395 52.946C399.554 53.394 399.633 53.8957 399.633 54.451C399.633 55.011 399.554 55.515 399.395 55.963C399.241 56.411 399.017 56.7937 398.723 57.111C398.429 57.4283 398.075 57.6733 397.659 57.846C397.244 58.014 396.777 58.098 396.259 58.098C395.737 58.098 395.265 58.014 394.845 57.846C394.43 57.6733 394.075 57.4283 393.781 57.111C393.487 56.7937 393.261 56.411 393.102 55.963C392.948 55.515 392.871 55.011 392.871 54.451C392.871 53.8957 392.948 53.394 393.102 52.946C393.261 52.4933 393.487 52.1083 393.781 51.791C394.075 51.4737 394.43 51.2287 394.845 51.056C395.265 50.8833 395.737 50.797 396.259 50.797ZM396.259 57.125C396.959 57.125 397.482 56.8917 397.827 56.425C398.173 55.9537 398.345 55.298 398.345 54.458C398.345 53.6133 398.173 52.9553 397.827 52.484C397.482 52.0127 396.959 51.777 396.259 51.777C395.905 51.777 395.594 51.8377 395.328 51.959C395.067 52.0803 394.848 52.2553 394.67 52.484C394.498 52.7127 394.367 52.995 394.278 53.331C394.194 53.6623 394.152 54.038 394.152 54.458C394.152 55.298 394.325 55.9537 394.67 56.425C395.02 56.8917 395.55 57.125 396.259 57.125ZM406.149 52.169C406.111 52.2203 406.074 52.26 406.037 52.288C405.999 52.316 405.948 52.33 405.883 52.33C405.813 52.33 405.736 52.302 405.652 52.246C405.568 52.1853 405.463 52.12 405.337 52.05C405.215 51.98 405.064 51.917 404.882 51.861C404.704 51.8003 404.485 51.77 404.224 51.77C403.874 51.77 403.566 51.833 403.3 51.959C403.034 52.0803 402.81 52.2577 402.628 52.491C402.45 52.7243 402.315 53.0067 402.222 53.338C402.133 53.6693 402.089 54.0403 402.089 54.451C402.089 54.8803 402.138 55.263 402.236 55.599C402.334 55.9303 402.471 56.2103 402.649 56.439C402.831 56.663 403.048 56.8357 403.3 56.957C403.556 57.0737 403.843 57.132 404.161 57.132C404.464 57.132 404.714 57.097 404.91 57.027C405.106 56.9523 405.267 56.8707 405.393 56.782C405.523 56.6933 405.631 56.614 405.715 56.544C405.803 56.4693 405.89 56.432 405.974 56.432C406.076 56.432 406.156 56.4717 406.212 56.551L406.562 57.006C406.408 57.1973 406.233 57.3607 406.037 57.496C405.841 57.6313 405.628 57.7457 405.4 57.839C405.176 57.9277 404.94 57.993 404.693 58.035C404.445 58.077 404.193 58.098 403.937 58.098C403.493 58.098 403.08 58.0163 402.698 57.853C402.32 57.6897 401.991 57.454 401.711 57.146C401.431 56.8333 401.211 56.4507 401.053 55.998C400.894 55.5453 400.815 55.0297 400.815 54.451C400.815 53.9237 400.887 53.436 401.032 52.988C401.181 52.54 401.396 52.155 401.676 51.833C401.96 51.5063 402.308 51.252 402.719 51.07C403.134 50.888 403.61 50.797 404.147 50.797C404.646 50.797 405.085 50.8787 405.463 51.042C405.845 51.2007 406.184 51.427 406.478 51.721L406.149 52.169ZM413.793 51.861H411.07V58H409.824V51.861H407.101V50.909H413.793V51.861ZM418.756 54.808C418.182 54.8267 417.692 54.8733 417.286 54.948C416.884 55.018 416.555 55.1113 416.299 55.228C416.047 55.3447 415.862 55.4823 415.746 55.641C415.634 55.7997 415.578 55.977 415.578 56.173C415.578 56.3597 415.608 56.5207 415.669 56.656C415.729 56.7913 415.811 56.9033 415.914 56.992C416.021 57.076 416.145 57.139 416.285 57.181C416.429 57.2183 416.583 57.237 416.747 57.237C416.966 57.237 417.167 57.216 417.349 57.174C417.531 57.1273 417.701 57.062 417.86 56.978C418.023 56.894 418.177 56.7937 418.322 56.677C418.471 56.5603 418.616 56.4273 418.756 56.278V54.808ZM414.731 51.91C415.123 51.532 415.545 51.2497 415.998 51.063C416.45 50.8763 416.952 50.783 417.503 50.783C417.899 50.783 418.252 50.8483 418.56 50.979C418.868 51.1097 419.127 51.2917 419.337 51.525C419.547 51.7583 419.705 52.0407 419.813 52.372C419.92 52.7033 419.974 53.0673 419.974 53.464V58H419.421C419.299 58 419.206 57.9813 419.141 57.944C419.075 57.902 419.024 57.8227 418.987 57.706L418.847 57.034C418.66 57.2067 418.478 57.3607 418.301 57.496C418.123 57.6267 417.937 57.7387 417.741 57.832C417.545 57.9207 417.335 57.9883 417.111 58.035C416.891 58.0863 416.646 58.112 416.376 58.112C416.1 58.112 415.841 58.0747 415.599 58C415.356 57.9207 415.144 57.804 414.962 57.65C414.784 57.496 414.642 57.3023 414.535 57.069C414.432 56.831 414.381 56.551 414.381 56.229C414.381 55.949 414.458 55.6807 414.612 55.424C414.766 55.1627 415.015 54.9317 415.361 54.731C415.706 54.5303 416.156 54.367 416.712 54.241C417.267 54.1103 417.948 54.0357 418.756 54.017V53.464C418.756 52.9133 418.637 52.498 418.399 52.218C418.161 51.9333 417.813 51.791 417.356 51.791C417.048 51.791 416.789 51.8307 416.579 51.91C416.373 51.9847 416.194 52.071 416.04 52.169C415.89 52.2623 415.76 52.3487 415.648 52.428C415.54 52.5027 415.433 52.54 415.326 52.54C415.242 52.54 415.169 52.519 415.109 52.477C415.048 52.4303 414.997 52.3743 414.955 52.309L414.731 51.91ZM424.595 57.125C425.061 57.125 425.43 57.0177 425.701 56.803C425.971 56.5837 426.107 56.285 426.107 55.907C426.107 55.739 426.081 55.5873 426.03 55.452C425.978 55.312 425.894 55.1907 425.778 55.088C425.661 54.9853 425.505 54.906 425.309 54.85C425.117 54.794 424.882 54.766 424.602 54.766H423.069V57.125H424.595ZM423.069 51.749V53.975H424.434C424.639 53.975 424.828 53.947 425.001 53.891C425.178 53.8303 425.33 53.7487 425.456 53.646C425.582 53.5387 425.68 53.4127 425.75 53.268C425.82 53.1187 425.855 52.9553 425.855 52.778C425.855 52.6473 425.831 52.5213 425.785 52.4C425.738 52.274 425.659 52.1643 425.547 52.071C425.435 51.973 425.288 51.896 425.106 51.84C424.924 51.7793 424.7 51.749 424.434 51.749H423.069ZM424.469 50.909C424.907 50.909 425.283 50.9533 425.596 51.042C425.908 51.1307 426.165 51.252 426.366 51.406C426.566 51.5553 426.713 51.7327 426.807 51.938C426.9 52.1433 426.947 52.3627 426.947 52.596C426.947 52.75 426.926 52.911 426.884 53.079C426.842 53.247 426.767 53.408 426.66 53.562C426.557 53.716 426.415 53.856 426.233 53.982C426.055 54.1033 425.831 54.199 425.561 54.269C426.102 54.3623 426.52 54.5513 426.814 54.836C427.108 55.116 427.255 55.487 427.255 55.949C427.255 56.2943 427.185 56.5953 427.045 56.852C426.909 57.104 426.72 57.3163 426.478 57.489C426.24 57.6617 425.96 57.79 425.638 57.874C425.316 57.958 424.97 58 424.602 58H421.872V50.909H424.469ZM439.66 57.055V60.058C439.66 60.1793 439.625 60.2727 439.555 60.338C439.49 60.408 439.403 60.443 439.296 60.443H438.526V58H428.817V50.909H430.07V57.055H432.961V50.909H434.214V57.055H437.105V50.909H438.358V57.055H439.66ZM447 50.909V58H445.754V53.184C445.754 53.0907 445.758 52.9903 445.768 52.883C445.777 52.7757 445.789 52.6683 445.803 52.561C445.761 52.6543 445.719 52.7407 445.677 52.82C445.635 52.8993 445.59 52.9717 445.544 53.037L442.121 57.692C442.069 57.7667 442.004 57.839 441.925 57.909C441.85 57.9743 441.766 58.007 441.673 58.007H440.917V50.916H442.17V55.732C442.17 55.8207 442.165 55.9187 442.156 56.026C442.146 56.1287 442.135 56.2337 442.121 56.341C442.163 56.2523 442.205 56.1707 442.247 56.096C442.289 56.0167 442.331 55.9443 442.373 55.879L445.796 51.224C445.847 51.1493 445.912 51.0793 445.992 51.014C446.071 50.944 446.157 50.909 446.251 50.909H447ZM453.274 51.259C453.34 51.1563 453.426 51.0723 453.533 51.007C453.641 50.9417 453.755 50.909 453.876 50.909H454.849L453.008 53.611C452.896 53.7837 452.78 53.926 452.658 54.038C452.537 54.1453 452.388 54.2293 452.21 54.29C452.434 54.3507 452.623 54.4463 452.777 54.577C452.931 54.703 453.069 54.8663 453.19 55.067L455.052 58H454.184C453.96 58 453.788 57.9627 453.666 57.888C453.545 57.8133 453.44 57.706 453.351 57.566L451.972 55.361C451.753 54.997 451.424 54.815 450.985 54.815H450.222V58.007H448.969V50.909H450.222V53.975H450.894C451.268 53.975 451.559 53.8163 451.769 53.499L453.274 51.259ZM458.931 50.797C459.449 50.797 459.916 50.8833 460.331 51.056C460.746 51.2287 461.101 51.4737 461.395 51.791C461.689 52.1083 461.913 52.4933 462.067 52.946C462.226 53.394 462.305 53.8957 462.305 54.451C462.305 55.011 462.226 55.515 462.067 55.963C461.913 56.411 461.689 56.7937 461.395 57.111C461.101 57.4283 460.746 57.6733 460.331 57.846C459.916 58.014 459.449 58.098 458.931 58.098C458.408 58.098 457.937 58.014 457.517 57.846C457.102 57.6733 456.747 57.4283 456.453 57.111C456.159 56.7937 455.933 56.411 455.774 55.963C455.62 55.515 455.543 55.011 455.543 54.451C455.543 53.8957 455.62 53.394 455.774 52.946C455.933 52.4933 456.159 52.1083 456.453 51.791C456.747 51.4737 457.102 51.2287 457.517 51.056C457.937 50.8833 458.408 50.797 458.931 50.797ZM458.931 57.125C459.631 57.125 460.154 56.8917 460.499 56.425C460.844 55.9537 461.017 55.298 461.017 54.458C461.017 53.6133 460.844 52.9553 460.499 52.484C460.154 52.0127 459.631 51.777 458.931 51.777C458.576 51.777 458.266 51.8377 458 51.959C457.739 52.0803 457.519 52.2553 457.342 52.484C457.169 52.7127 457.039 52.995 456.95 53.331C456.866 53.6623 456.824 54.038 456.824 54.458C456.824 55.298 456.997 55.9537 457.342 56.425C457.692 56.8917 458.222 57.125 458.931 57.125ZM466.608 57.125C467.075 57.125 467.444 57.0177 467.714 56.803C467.985 56.5837 468.12 56.285 468.12 55.907C468.12 55.739 468.095 55.5873 468.043 55.452C467.992 55.312 467.908 55.1907 467.791 55.088C467.675 54.9853 467.518 54.906 467.322 54.85C467.131 54.794 466.895 54.766 466.615 54.766H465.082V57.125H466.608ZM465.082 51.749V53.975H466.447C466.653 53.975 466.842 53.947 467.014 53.891C467.192 53.8303 467.343 53.7487 467.469 53.646C467.595 53.5387 467.693 53.4127 467.763 53.268C467.833 53.1187 467.868 52.9553 467.868 52.778C467.868 52.6473 467.845 52.5213 467.798 52.4C467.752 52.274 467.672 52.1643 467.56 52.071C467.448 51.973 467.301 51.896 467.119 51.84C466.937 51.7793 466.713 51.749 466.447 51.749H465.082ZM466.482 50.909C466.921 50.909 467.297 50.9533 467.609 51.042C467.922 51.1307 468.179 51.252 468.379 51.406C468.58 51.5553 468.727 51.7327 468.82 51.938C468.914 52.1433 468.96 52.3627 468.96 52.596C468.96 52.75 468.939 52.911 468.897 53.079C468.855 53.247 468.781 53.408 468.673 53.562C468.571 53.716 468.428 53.856 468.246 53.982C468.069 54.1033 467.845 54.199 467.574 54.269C468.116 54.3623 468.533 54.5513 468.827 54.836C469.121 55.116 469.268 55.487 469.268 55.949C469.268 56.2943 469.198 56.5953 469.058 56.852C468.923 57.104 468.734 57.3163 468.491 57.489C468.253 57.6617 467.973 57.79 467.651 57.874C467.329 57.958 466.984 58 466.615 58H463.885V50.909H466.482ZM291.895 68.909V76H290.642V72.682H287.24V76H285.987V68.909H287.24V71.737H290.642V68.909H291.895ZM297.719 72.808C297.145 72.8267 296.655 72.8733 296.249 72.948C295.847 73.018 295.518 73.1113 295.262 73.228C295.01 73.3447 294.825 73.4823 294.709 73.641C294.597 73.7997 294.541 73.977 294.541 74.173C294.541 74.3597 294.571 74.5207 294.632 74.656C294.692 74.7913 294.774 74.9033 294.877 74.992C294.984 75.076 295.108 75.139 295.248 75.181C295.392 75.2183 295.546 75.237 295.71 75.237C295.929 75.237 296.13 75.216 296.312 75.174C296.494 75.1273 296.664 75.062 296.823 74.978C296.986 74.894 297.14 74.7937 297.285 74.677C297.434 74.5603 297.579 74.4273 297.719 74.278V72.808ZM293.694 69.91C294.086 69.532 294.508 69.2497 294.961 69.063C295.413 68.8763 295.915 68.783 296.466 68.783C296.862 68.783 297.215 68.8483 297.523 68.979C297.831 69.1097 298.09 69.2917 298.3 69.525C298.51 69.7583 298.668 70.0407 298.776 70.372C298.883 70.7033 298.937 71.0673 298.937 71.464V76H298.384C298.262 76 298.169 75.9813 298.104 75.944C298.038 75.902 297.987 75.8227 297.95 75.706L297.81 75.034C297.623 75.2067 297.441 75.3607 297.264 75.496C297.086 75.6267 296.9 75.7387 296.704 75.832C296.508 75.9207 296.298 75.9883 296.074 76.035C295.854 76.0863 295.609 76.112 295.339 76.112C295.063 76.112 294.804 76.0747 294.562 76C294.319 75.9207 294.107 75.804 293.925 75.65C293.747 75.496 293.605 75.3023 293.498 75.069C293.395 74.831 293.344 74.551 293.344 74.229C293.344 73.949 293.421 73.6807 293.575 73.424C293.729 73.1627 293.978 72.9317 294.324 72.731C294.669 72.5303 295.119 72.367 295.675 72.241C296.23 72.1103 296.911 72.0357 297.719 72.017V71.464C297.719 70.9133 297.6 70.498 297.362 70.218C297.124 69.9333 296.776 69.791 296.319 69.791C296.011 69.791 295.752 69.8307 295.542 69.91C295.336 69.9847 295.157 70.071 295.003 70.169C294.853 70.2623 294.723 70.3487 294.611 70.428C294.503 70.5027 294.396 70.54 294.289 70.54C294.205 70.54 294.132 70.519 294.072 70.477C294.011 70.4303 293.96 70.3743 293.918 70.309L293.694 69.91ZM312.32 68.888V76H311.193V71.289C311.193 71.1583 311.2 71.0137 311.214 70.855C311.232 70.6917 311.256 70.54 311.284 70.4L308.82 74.719C308.782 74.789 308.733 74.845 308.673 74.887C308.612 74.929 308.542 74.95 308.463 74.95H308.323C308.243 74.95 308.171 74.929 308.106 74.887C308.045 74.845 307.996 74.789 307.959 74.719L305.453 70.386C305.476 70.526 305.497 70.68 305.516 70.848C305.534 71.0113 305.544 71.1583 305.544 71.289V76H304.417V68.888H305.418C305.506 68.888 305.593 68.909 305.677 68.951C305.761 68.9883 305.833 69.0607 305.894 69.168L308.106 72.864C308.213 73.0787 308.309 73.305 308.393 73.543C308.472 73.2957 308.565 73.0693 308.673 72.864L310.843 69.168C310.903 69.056 310.976 68.9813 311.06 68.944C311.144 68.9067 311.23 68.888 311.319 68.888H312.32ZM318.131 72.808C317.557 72.8267 317.067 72.8733 316.661 72.948C316.259 73.018 315.93 73.1113 315.674 73.228C315.422 73.3447 315.237 73.4823 315.121 73.641C315.009 73.7997 314.953 73.977 314.953 74.173C314.953 74.3597 314.983 74.5207 315.044 74.656C315.104 74.7913 315.186 74.9033 315.289 74.992C315.396 75.076 315.52 75.139 315.66 75.181C315.804 75.2183 315.958 75.237 316.122 75.237C316.341 75.237 316.542 75.216 316.724 75.174C316.906 75.1273 317.076 75.062 317.235 74.978C317.398 74.894 317.552 74.7937 317.697 74.677C317.846 74.5603 317.991 74.4273 318.131 74.278V72.808ZM314.106 69.91C314.498 69.532 314.92 69.2497 315.373 69.063C315.825 68.8763 316.327 68.783 316.878 68.783C317.274 68.783 317.627 68.8483 317.935 68.979C318.243 69.1097 318.502 69.2917 318.712 69.525C318.922 69.7583 319.08 70.0407 319.188 70.372C319.295 70.7033 319.349 71.0673 319.349 71.464V76H318.796C318.674 76 318.581 75.9813 318.516 75.944C318.45 75.902 318.399 75.8227 318.362 75.706L318.222 75.034C318.035 75.2067 317.853 75.3607 317.676 75.496C317.498 75.6267 317.312 75.7387 317.116 75.832C316.92 75.9207 316.71 75.9883 316.486 76.035C316.266 76.0863 316.021 76.112 315.751 76.112C315.475 76.112 315.216 76.0747 314.974 76C314.731 75.9207 314.519 75.804 314.337 75.65C314.159 75.496 314.017 75.3023 313.91 75.069C313.807 74.831 313.756 74.551 313.756 74.229C313.756 73.949 313.833 73.6807 313.987 73.424C314.141 73.1627 314.39 72.9317 314.736 72.731C315.081 72.5303 315.531 72.367 316.087 72.241C316.642 72.1103 317.323 72.0357 318.131 72.017V71.464C318.131 70.9133 318.012 70.498 317.774 70.218C317.536 69.9333 317.188 69.791 316.731 69.791C316.423 69.791 316.164 69.8307 315.954 69.91C315.748 69.9847 315.569 70.071 315.415 70.169C315.265 70.2623 315.135 70.3487 315.023 70.428C314.915 70.5027 314.808 70.54 314.701 70.54C314.617 70.54 314.544 70.519 314.484 70.477C314.423 70.4303 314.372 70.3743 314.33 70.309L314.106 69.91ZM322.5 74.292C322.728 74.6 322.978 74.817 323.249 74.943C323.519 75.069 323.823 75.132 324.159 75.132C324.821 75.132 325.33 74.8963 325.685 74.425C326.039 73.9537 326.217 73.2817 326.217 72.409C326.217 71.947 326.175 71.5503 326.091 71.219C326.011 70.8877 325.895 70.617 325.741 70.407C325.587 70.1923 325.398 70.036 325.174 69.938C324.95 69.84 324.695 69.791 324.411 69.791C324.005 69.791 323.648 69.8843 323.34 70.071C323.036 70.2577 322.756 70.5213 322.5 70.862V74.292ZM322.437 70.008C322.735 69.6393 323.081 69.343 323.473 69.119C323.865 68.895 324.313 68.783 324.817 68.783C325.227 68.783 325.598 68.8623 325.93 69.021C326.261 69.175 326.543 69.406 326.777 69.714C327.01 70.0173 327.19 70.3953 327.316 70.848C327.442 71.3007 327.505 71.821 327.505 72.409C327.505 72.9317 327.435 73.4193 327.295 73.872C327.155 74.32 326.952 74.7097 326.686 75.041C326.424 75.3677 326.102 75.6267 325.72 75.818C325.342 76.0047 324.915 76.098 324.439 76.098C324.005 76.098 323.631 76.0257 323.319 75.881C323.011 75.7317 322.738 75.5263 322.5 75.265V78.401H321.247V68.909H321.996C322.173 68.909 322.283 68.9953 322.325 69.168L322.437 70.008ZM333.386 69.259C333.451 69.1563 333.537 69.0723 333.645 69.007C333.752 68.9417 333.866 68.909 333.988 68.909H334.961L333.12 71.611C333.008 71.7837 332.891 71.926 332.77 72.038C332.648 72.1453 332.499 72.2293 332.322 72.29C332.546 72.3507 332.735 72.4463 332.889 72.577C333.043 72.703 333.18 72.8663 333.302 73.067L335.164 76H334.296C334.072 76 333.899 75.9627 333.778 75.888C333.656 75.8133 333.551 75.706 333.463 75.566L332.084 73.361C331.864 72.997 331.535 72.815 331.097 72.815H330.334V76.007H329.081V68.909H330.334V71.975H331.006C331.379 71.975 331.671 71.8163 331.881 71.499L333.386 69.259ZM340.799 71.681C340.799 71.3917 340.757 71.128 340.673 70.89C340.594 70.6473 340.475 70.4397 340.316 70.267C340.162 70.0897 339.973 69.9543 339.749 69.861C339.525 69.763 339.271 69.714 338.986 69.714C338.389 69.714 337.915 69.889 337.565 70.239C337.22 70.5843 337.005 71.065 336.921 71.681H340.799ZM341.807 75.006C341.653 75.1927 341.469 75.356 341.254 75.496C341.04 75.6313 340.809 75.7433 340.561 75.832C340.319 75.9207 340.067 75.986 339.805 76.028C339.544 76.0747 339.285 76.098 339.028 76.098C338.538 76.098 338.086 76.0163 337.67 75.853C337.26 75.685 336.903 75.4423 336.599 75.125C336.301 74.803 336.067 74.4063 335.899 73.935C335.731 73.4637 335.647 72.9223 335.647 72.311C335.647 71.8163 335.722 71.3543 335.871 70.925C336.025 70.4957 336.245 70.1247 336.529 69.812C336.814 69.4947 337.162 69.2473 337.572 69.07C337.983 68.888 338.445 68.797 338.958 68.797C339.383 68.797 339.775 68.8693 340.134 69.014C340.498 69.154 340.811 69.3593 341.072 69.63C341.338 69.896 341.546 70.2273 341.695 70.624C341.845 71.016 341.919 71.464 341.919 71.968C341.919 72.164 341.898 72.2947 341.856 72.36C341.814 72.4253 341.735 72.458 341.618 72.458H336.879C336.893 72.906 336.954 73.2957 337.061 73.627C337.173 73.9583 337.327 74.236 337.523 74.46C337.719 74.6793 337.953 74.845 338.223 74.957C338.494 75.0643 338.797 75.118 339.133 75.118C339.446 75.118 339.714 75.083 339.938 75.013C340.167 74.9383 340.363 74.859 340.526 74.775C340.69 74.691 340.825 74.614 340.932 74.544C341.044 74.4693 341.14 74.432 341.219 74.432C341.322 74.432 341.401 74.4717 341.457 74.551L341.807 75.006ZM349.235 69.861H346.512V76H345.266V69.861H342.543V68.909H349.235V69.861ZM356.331 76H355.078V69.861H351.676V76H350.423V68.909H356.331V76ZM364.527 76H363.281V69.889H361.041C360.985 70.7897 360.901 71.569 360.789 72.227C360.677 72.8803 360.542 73.438 360.383 73.9C360.229 74.3573 360.054 74.7307 359.858 75.02C359.667 75.3047 359.464 75.5263 359.249 75.685C359.039 75.8437 358.82 75.951 358.591 76.007C358.367 76.063 358.143 76.091 357.919 76.091C357.523 76.091 357.324 76.028 357.324 75.902V75.111H357.688C357.847 75.111 358.008 75.083 358.171 75.027C358.335 74.971 358.493 74.8637 358.647 74.705C358.806 74.5463 358.958 74.3247 359.102 74.04C359.247 73.7507 359.378 73.3773 359.494 72.92C359.616 72.458 359.718 71.9003 359.802 71.247C359.891 70.589 359.959 69.8097 360.005 68.909H364.527V76ZM371.247 71.681C371.247 71.3917 371.205 71.128 371.121 70.89C371.041 70.6473 370.922 70.4397 370.764 70.267C370.61 70.0897 370.421 69.9543 370.197 69.861C369.973 69.763 369.718 69.714 369.434 69.714C368.836 69.714 368.363 69.889 368.013 70.239C367.667 70.5843 367.453 71.065 367.369 71.681H371.247ZM372.255 75.006C372.101 75.1927 371.916 75.356 371.702 75.496C371.487 75.6313 371.256 75.7433 371.009 75.832C370.766 75.9207 370.514 75.986 370.253 76.028C369.991 76.0747 369.732 76.098 369.476 76.098C368.986 76.098 368.533 76.0163 368.118 75.853C367.707 75.685 367.35 75.4423 367.047 75.125C366.748 74.803 366.515 74.4063 366.347 73.935C366.179 73.4637 366.095 72.9223 366.095 72.311C366.095 71.8163 366.169 71.3543 366.319 70.925C366.473 70.4957 366.692 70.1247 366.977 69.812C367.261 69.4947 367.609 69.2473 368.02 69.07C368.43 68.888 368.892 68.797 369.406 68.797C369.83 68.797 370.222 68.8693 370.582 69.014C370.946 69.154 371.258 69.3593 371.52 69.63C371.786 69.896 371.993 70.2273 372.143 70.624C372.292 71.016 372.367 71.464 372.367 71.968C372.367 72.164 372.346 72.2947 372.304 72.36C372.262 72.4253 372.182 72.458 372.066 72.458H367.327C367.341 72.906 367.401 73.2957 367.509 73.627C367.621 73.9583 367.775 74.236 367.971 74.46C368.167 74.6793 368.4 74.845 368.671 74.957C368.941 75.0643 369.245 75.118 369.581 75.118C369.893 75.118 370.162 75.083 370.386 75.013C370.614 74.9383 370.81 74.859 370.974 74.775C371.137 74.691 371.272 74.614 371.38 74.544C371.492 74.4693 371.587 74.432 371.667 74.432C371.769 74.432 371.849 74.4717 371.905 74.551L372.255 75.006ZM379.98 68.909V76H378.734V71.184C378.734 71.0907 378.739 70.9903 378.748 70.883C378.757 70.7757 378.769 70.6683 378.783 70.561C378.741 70.6543 378.699 70.7407 378.657 70.82C378.615 70.8993 378.571 70.9717 378.524 71.037L375.101 75.692C375.05 75.7667 374.984 75.839 374.905 75.909C374.83 75.9743 374.746 76.007 374.653 76.007H373.897V68.916H375.15V73.732C375.15 73.8207 375.145 73.9187 375.136 74.026C375.127 74.1287 375.115 74.2337 375.101 74.341C375.143 74.2523 375.185 74.1707 375.227 74.096C375.269 74.0167 375.311 73.9443 375.353 73.879L378.776 69.224C378.827 69.1493 378.893 69.0793 378.972 69.014C379.051 68.944 379.138 68.909 379.231 68.909H379.98ZM377.019 67.194C377.21 67.194 377.371 67.173 377.502 67.131C377.633 67.0843 377.738 67.012 377.817 66.914C377.901 66.816 377.962 66.69 377.999 66.536C378.036 66.382 378.055 66.193 378.055 65.969H378.783C378.872 65.969 378.939 66.0087 378.986 66.088C379.033 66.1673 379.056 66.2537 379.056 66.347C379.056 66.5803 379.009 66.7903 378.916 66.977C378.823 67.1637 378.687 67.3247 378.51 67.46C378.337 67.5907 378.125 67.691 377.873 67.761C377.621 67.831 377.336 67.866 377.019 67.866C376.702 67.866 376.417 67.831 376.165 67.761C375.913 67.691 375.698 67.5907 375.521 67.46C375.348 67.3247 375.215 67.1637 375.122 66.977C375.029 66.7903 374.982 66.5803 374.982 66.347C374.982 66.2537 375.005 66.1673 375.052 66.088C375.099 66.0087 375.166 65.969 375.255 65.969H375.983C375.983 66.193 376.002 66.382 376.039 66.536C376.076 66.69 376.135 66.816 376.214 66.914C376.298 67.012 376.405 67.0843 376.536 67.131C376.667 67.173 376.828 67.194 377.019 67.194ZM386.885 70.169C386.848 70.2203 386.81 70.26 386.773 70.288C386.736 70.316 386.684 70.33 386.619 70.33C386.549 70.33 386.472 70.302 386.388 70.246C386.304 70.1853 386.199 70.12 386.073 70.05C385.952 69.98 385.8 69.917 385.618 69.861C385.441 69.8003 385.221 69.77 384.96 69.77C384.61 69.77 384.302 69.833 384.036 69.959C383.77 70.0803 383.546 70.2577 383.364 70.491C383.187 70.7243 383.051 71.0067 382.958 71.338C382.869 71.6693 382.825 72.0403 382.825 72.451C382.825 72.8803 382.874 73.263 382.972 73.599C383.07 73.9303 383.208 74.2103 383.385 74.439C383.567 74.663 383.784 74.8357 384.036 74.957C384.293 75.0737 384.58 75.132 384.897 75.132C385.2 75.132 385.45 75.097 385.646 75.027C385.842 74.9523 386.003 74.8707 386.129 74.782C386.26 74.6933 386.367 74.614 386.451 74.544C386.54 74.4693 386.626 74.432 386.71 74.432C386.813 74.432 386.892 74.4717 386.948 74.551L387.298 75.006C387.144 75.1973 386.969 75.3607 386.773 75.496C386.577 75.6313 386.365 75.7457 386.136 75.839C385.912 75.9277 385.676 75.993 385.429 76.035C385.182 76.077 384.93 76.098 384.673 76.098C384.23 76.098 383.817 76.0163 383.434 75.853C383.056 75.6897 382.727 75.454 382.447 75.146C382.167 74.8333 381.948 74.4507 381.789 73.998C381.63 73.5453 381.551 73.0297 381.551 72.451C381.551 71.9237 381.623 71.436 381.768 70.988C381.917 70.54 382.132 70.155 382.412 69.833C382.697 69.5063 383.044 69.252 383.455 69.07C383.87 68.888 384.346 68.797 384.883 68.797C385.382 68.797 385.821 68.8787 386.199 69.042C386.582 69.2007 386.92 69.427 387.214 69.721L386.885 70.169ZM391.358 75.09C391.61 75.09 391.827 75.0597 392.009 74.999C392.196 74.9337 392.35 74.845 392.471 74.733C392.593 74.6163 392.684 74.481 392.744 74.327C392.805 74.173 392.835 74.005 392.835 73.823C392.835 73.655 392.81 73.4987 392.758 73.354C392.707 73.2047 392.621 73.074 392.499 72.962C392.383 72.85 392.229 72.7613 392.037 72.696C391.846 72.6307 391.613 72.598 391.337 72.598H389.825V75.09H391.358ZM391.337 71.688C391.827 71.688 392.238 71.7463 392.569 71.863C392.905 71.9797 393.174 72.136 393.374 72.332C393.58 72.528 393.727 72.7543 393.815 73.011C393.904 73.2677 393.948 73.5337 393.948 73.809C393.948 74.1263 393.892 74.4203 393.78 74.691C393.668 74.957 393.503 75.188 393.283 75.384C393.064 75.5753 392.793 75.727 392.471 75.839C392.149 75.9463 391.778 76 391.358 76H388.635V68.909H389.825V71.688H391.337ZM396.755 68.909V76H395.509V68.909H396.755Z" fill="#331A2F" fill-opacity="0.9"/>
<line x1="260.5" y1="13" x2="260.5" y2="93" stroke="#331A2F" stroke-opacity="0.5"/>
<path d="M85.1934 61.2458C84.4285 61.2458 83.5469 61.1289 82.5483 60.8952L79.3934 60.0348L80.2539 57.4535C82.0385 58.0909 83.5256 58.4096 84.7154 58.4096C85.3527 58.4096 85.8838 58.2608 86.3087 57.9634C86.7336 57.666 86.9461 57.2623 86.9461 56.7524C86.9461 56.2426 86.808 55.8601 86.5318 55.6052C86.2556 55.3503 85.7457 55.1272 85.0022 54.936L83.2813 54.4898C80.9018 53.8737 79.7121 52.4715 79.7121 50.2833C79.7121 48.9661 80.2114 47.8826 81.2099 47.0328C82.2297 46.183 83.5575 45.7581 85.1934 45.7581C85.852 45.7581 86.6274 45.8749 87.5197 46.1086L90.6746 46.969L89.8142 49.5503C88.0933 48.913 86.7868 48.5943 85.8945 48.5943C85.2996 48.5943 84.8003 48.7536 84.3967 49.0723C83.993 49.3697 83.7912 49.7628 83.7912 50.2514C83.7912 50.7613 83.9293 51.1437 84.2055 51.3987C84.4817 51.6536 84.9915 51.8767 85.7351 52.0679L87.4241 52.514C88.6988 52.8539 89.6124 53.3745 90.1647 54.0755C90.7171 54.7554 90.9933 55.6371 90.9933 56.7206C90.9933 58.0165 90.5047 59.1 89.5274 59.9711C88.5501 60.8209 87.1054 61.2458 85.1934 61.2458ZM98.8228 61.2458C97.2294 61.2458 96.1034 60.8528 95.4448 60.0667C94.8075 59.2806 94.4888 58.0803 94.4888 56.4656V48.8492H92.1306V46.0449H94.4888V42.3163L98.536 41.5196V46.0449H102.041V48.8492H98.536V56.5294C98.536 57.7828 99.0459 58.4096 100.066 58.4096C100.682 58.4096 101.34 58.2184 102.041 57.8359L102.679 60.226C101.51 60.9059 100.225 61.2458 98.8228 61.2458ZM108.746 61.2458C107.301 61.2458 106.154 60.7996 105.304 59.9073C104.454 59.0151 104.029 57.9528 104.029 56.7206C104.029 55.807 104.327 55.0741 104.922 54.5217C105.538 53.9481 106.494 53.5019 107.79 53.1832L112.92 51.9085V50.602C112.92 49.9858 112.729 49.4972 112.347 49.136C111.986 48.7749 111.476 48.5943 110.817 48.5943C110.073 48.5943 108.395 49.1573 105.782 50.2833L104.667 47.702L108.299 46.3635C109.404 45.9599 110.212 45.7581 110.721 45.7581C112.655 45.7581 114.174 46.2679 115.279 47.2877C116.405 48.2862 116.968 49.6034 116.968 51.2393V56.7206C116.968 57.1242 117.031 57.7297 117.159 58.537C117.307 59.3231 117.499 59.9923 117.732 60.5447L114.259 61.2458C113.834 60.7784 113.388 60.1304 112.92 59.3019C111.497 60.5978 110.105 61.2458 108.746 61.2458ZM110.18 58.4096C111.008 58.4096 111.922 57.9315 112.92 56.9755V53.7569L109.734 54.681C108.714 54.9785 108.204 55.5415 108.204 56.37C108.204 57.0074 108.384 57.5066 108.746 57.8678C109.107 58.229 109.585 58.4096 110.18 58.4096ZM125.385 61.2458C123.792 61.2458 122.666 60.8528 122.007 60.0667C121.37 59.2806 121.051 58.0803 121.051 56.4656V48.8492H118.693V46.0449H121.051V42.3163L125.098 41.5196V46.0449H128.604V48.8492H125.098V56.5294C125.098 57.7828 125.608 58.4096 126.628 58.4096C127.244 58.4096 127.903 58.2184 128.604 57.8359L129.241 60.226C128.073 60.9059 126.787 61.2458 125.385 61.2458ZM170.394 60.959H166.347V52.2591C166.347 50.9844 166.156 50.0602 165.773 49.4866C165.412 48.8917 164.828 48.5943 164.021 48.5943C163.213 48.5943 162.342 49.0723 161.407 50.0283V60.959H157.36V52.2591C157.36 50.9844 157.18 50.0602 156.818 49.4866C156.457 48.8917 155.862 48.5943 155.034 48.5943C154.248 48.5943 153.377 49.0723 152.421 50.0283V60.959H148.373V50.2833C148.373 49.8796 148.299 49.2848 148.15 48.4987C148.023 47.6914 147.842 47.0115 147.609 46.4591L151.05 45.7581C151.496 46.2042 151.953 46.8522 152.421 47.702C153.759 46.406 155.151 45.7581 156.595 45.7581C158.741 45.7581 160.196 46.5123 160.961 48.0207C161.429 47.4046 162.098 46.8734 162.969 46.4273C163.84 45.9811 164.711 45.7581 165.582 45.7581C167.197 45.7581 168.397 46.2255 169.183 47.1602C169.99 48.095 170.394 49.5503 170.394 51.5261V60.959ZM177.742 61.2458C176.297 61.2458 175.15 60.7996 174.3 59.9073C173.45 59.0151 173.025 57.9528 173.025 56.7206C173.025 55.807 173.323 55.0741 173.918 54.5217C174.534 53.9481 175.49 53.5019 176.786 53.1832L181.917 51.9085V50.602C181.917 49.9858 181.725 49.4972 181.343 49.136C180.982 48.7749 180.472 48.5943 179.813 48.5943C179.07 48.5943 177.391 49.1573 174.778 50.2833L173.663 47.702L177.296 46.3635C178.4 45.9599 179.208 45.7581 179.718 45.7581C181.651 45.7581 183.17 46.2679 184.275 47.2877C185.401 48.2862 185.964 49.6034 185.964 51.2393V56.7206C185.964 57.1242 186.027 57.7297 186.155 58.537C186.304 59.3231 186.495 59.9923 186.729 60.5447L183.255 61.2458C182.83 60.7784 182.384 60.1304 181.917 59.3019C180.493 60.5978 179.102 61.2458 177.742 61.2458ZM179.176 58.4096C180.004 58.4096 180.918 57.9315 181.917 56.9755V53.7569L178.73 54.681C177.71 54.9785 177.2 55.5415 177.2 56.37C177.2 57.0074 177.381 57.5066 177.742 57.8678C178.103 58.229 178.581 58.4096 179.176 58.4096ZM193.641 60.959H189.594V50.2833C189.594 49.8796 189.519 49.2848 189.371 48.4987C189.243 47.6914 189.063 47.0115 188.829 46.4591L192.271 45.7581C192.929 46.4167 193.386 47.309 193.641 48.435C194.066 47.5851 194.629 46.9265 195.33 46.4591C196.052 45.9918 196.828 45.7581 197.656 45.7581C198.124 45.7581 198.549 45.8324 198.931 45.9811L198.23 49.4547H197.178C196.18 49.4547 195.394 49.699 194.82 50.1877C194.268 50.6551 193.875 51.4411 193.641 52.5459V60.959ZM214.686 60.959H209.714L204.775 53.247V60.959H200.727V39.6713L204.775 38.8746V52.1316L209.81 46.0449H214.367L208.376 52.7052L214.686 60.959ZM221.94 61.2458C219.539 61.2458 217.723 60.5341 216.49 59.1107C215.279 57.666 214.674 55.7752 214.674 53.4382C214.674 51.1012 215.301 49.2423 216.554 47.8613C217.808 46.4591 219.55 45.7581 221.78 45.7581C226.093 45.7581 228.25 47.9994 228.25 52.4822C228.25 52.9496 228.196 53.3426 228.09 53.6613H218.849C218.849 55.2547 219.135 56.4444 219.709 57.2305C220.304 58.0165 221.122 58.4096 222.163 58.4096C223.331 58.4096 224.861 57.9847 226.752 57.1349L227.867 59.7161L224.489 60.959C223.915 61.1502 223.066 61.2458 221.94 61.2458ZM221.557 48.5943C220.707 48.5943 220.038 48.8917 219.55 49.4866C219.082 50.0815 218.849 50.825 218.849 51.7173H224.043C224.043 49.6353 223.214 48.5943 221.557 48.5943ZM236.185 61.2458C234.592 61.2458 233.466 60.8528 232.807 60.0667C232.17 59.2806 231.851 58.0803 231.851 56.4656V48.8492H229.493V46.0449H231.851V42.3163L235.899 41.5196V46.0449H239.404V48.8492H235.899V56.5294C235.899 57.7828 236.408 58.4096 237.428 58.4096C238.044 58.4096 238.703 58.2184 239.404 57.8359L240.041 60.226C238.873 60.9059 237.588 61.2458 236.185 61.2458Z" fill="#54618E"/>
<path d="M143.753 60.959H139.897V56.0513H131.197L130.337 53.5657L139.419 40.5636H143.753V53.0558H145.792V56.0513H143.753V60.959ZM139.897 53.0558V44.7702L134.256 53.0558H139.897Z" fill="#D653D2"/>
<mask id="mask0_1457_20126" style="mask-type:alpha" maskUnits="userSpaceOnUse" x="0" y="0" width="61" height="32">
<ellipse cx="30.208" cy="16.0983" rx="30.208" ry="15.3025" fill="url(#paint0_linear_1457_20126)"/>
</mask>
<g mask="url(#mask0_1457_20126)">
<ellipse cx="30.208" cy="16.0983" rx="30.208" ry="15.3025" fill="url(#paint1_linear_1457_20126)"/>
<path d="M39.8129 20.345V3.33628C39.8129 3.07614 39.828 2.79304 39.8582 2.48699C39.9186 2.18094 39.9791 1.86723 40.0395 1.54588L12.3085 20.345H39.8129ZM65.4824 20.345V21.5386C65.4824 21.707 65.3766 21.8447 65.1652 21.9518C64.9839 22.0436 64.6819 22.0895 64.2589 22.0895H43.6191V31.4088H39.8129V22.0895H9.4992C9.04608 22.0895 8.69869 22.0436 8.45702 21.9518C8.21536 21.8447 8.04921 21.707 7.95859 21.5386L7.55078 20.4598L39.7676 -1.11676H43.6191V20.345H65.4824Z" fill="white"/>
</g>
<defs>
<linearGradient id="paint0_linear_1457_20126" x1="69.4784" y1="-8.38575" x2="52.1749" y2="43.0986" gradientUnits="userSpaceOnUse">
<stop stop-color="#FF00AA"/>
<stop offset="1" stop-color="#8912DE"/>
</linearGradient>
<linearGradient id="paint1_linear_1457_20126" x1="69.4784" y1="-8.38575" x2="52.1749" y2="43.0986" gradientUnits="userSpaceOnUse">
<stop stop-color="#FF00AA"/>
<stop offset="1" stop-color="#8912DE"/>
</linearGradient>
</defs>
</svg>
