<svg width="148" height="49" viewBox="0 0 148 49" fill="none" xmlns="http://www.w3.org/2000/svg">
<g filter="url(#filter0_d_1525_19226)">
<path d="M53.4899 40.9518C53.0456 40.9518 52.5335 40.8839 51.9534 40.7481L50.1207 40.2483L50.6205 38.7488C51.6572 39.119 52.5211 39.3042 53.2122 39.3042C53.5825 39.3042 53.891 39.2178 54.1379 39.045C54.3847 38.8722 54.5081 38.6377 54.5081 38.3415C54.5081 38.0453 54.4279 37.8232 54.2674 37.6751C54.107 37.527 53.8108 37.3974 53.3789 37.2863L52.3792 37.0271C50.9969 36.6692 50.3058 35.8547 50.3058 34.5835C50.3058 33.8183 50.5958 33.1889 51.1759 32.6952C51.7683 32.2016 52.5396 31.9547 53.4899 31.9547C53.8725 31.9547 54.323 32.0226 54.8413 32.1584L56.6741 32.6582L56.1742 34.1577C55.1746 33.7875 54.4155 33.6023 53.8972 33.6023C53.5516 33.6023 53.2616 33.6949 53.0271 33.88C52.7926 34.0528 52.6754 34.2811 52.6754 34.565C52.6754 34.8612 52.7556 35.0833 52.916 35.2314C53.0765 35.3795 53.3727 35.5091 53.8046 35.6202L54.7858 35.8794C55.5263 36.0768 56.057 36.3792 56.3779 36.7865C56.6987 37.1814 56.8592 37.6936 56.8592 38.323C56.8592 39.0758 56.5753 39.7053 56.0076 40.2113C55.4399 40.7049 54.6007 40.9518 53.4899 40.9518ZM61.4074 40.9518C60.4818 40.9518 59.8277 40.7234 59.4451 40.2668C59.0749 39.8102 58.8898 39.1129 58.8898 38.1749V33.7504H57.5198V32.1214H58.8898V29.9554L61.2408 29.4926V32.1214H63.2772V33.7504H61.2408V38.2119C61.2408 38.9401 61.537 39.3042 62.1294 39.3042C62.4873 39.3042 62.8699 39.1931 63.2772 38.9709L63.6474 40.3594C62.9687 40.7543 62.222 40.9518 61.4074 40.9518ZM67.1717 40.9518C66.3325 40.9518 65.6661 40.6926 65.1724 40.1742C64.6787 39.6559 64.4319 39.0388 64.4319 38.323C64.4319 37.7923 64.6047 37.3665 64.9503 37.0457C65.3082 36.7124 65.8635 36.4533 66.6164 36.2681L69.5969 35.5276V34.7686C69.5969 34.4107 69.4858 34.1269 69.2636 33.9171C69.0538 33.7073 68.7576 33.6023 68.375 33.6023C67.9431 33.6023 66.9681 33.9294 65.4501 34.5835L64.8022 33.084L66.9126 32.3065C67.5543 32.072 68.0233 31.9547 68.3195 31.9547C69.4426 31.9547 70.325 32.2509 70.9668 32.8433C71.6209 33.4234 71.9479 34.1886 71.9479 35.1389V38.323C71.9479 38.5575 71.985 38.9092 72.059 39.3782C72.1454 39.8349 72.2565 40.2236 72.3922 40.5445L70.3744 40.9518C70.1276 40.6803 69.8684 40.3038 69.5969 39.8225C68.77 40.5753 67.9616 40.9518 67.1717 40.9518ZM68.0048 39.3042C68.4861 39.3042 69.0168 39.0265 69.5969 38.4711V36.6014L67.7456 37.1382C67.1532 37.311 66.857 37.638 66.857 38.1194C66.857 38.4896 66.9619 38.7796 67.1717 38.9895C67.3816 39.1993 67.6592 39.3042 68.0048 39.3042ZM76.8378 40.9518C75.9122 40.9518 75.2581 40.7234 74.8755 40.2668C74.5053 39.8102 74.3201 39.1129 74.3201 38.1749V33.7504H72.9502V32.1214H74.3201V29.9554L76.6712 29.4926V32.1214H78.7076V33.7504H76.6712V38.2119C76.6712 38.9401 76.9674 39.3042 77.5598 39.3042C77.9177 39.3042 78.3003 39.1931 78.7076 38.9709L79.0778 40.3594C78.399 40.7543 77.6524 40.9518 76.8378 40.9518ZM102.984 40.7852H100.633V35.7313C100.633 34.9908 100.522 34.4539 100.3 34.1207C100.09 33.7751 99.7506 33.6023 99.2816 33.6023C98.8126 33.6023 98.3066 33.88 97.7636 34.4354V40.7852H95.4125V35.7313C95.4125 34.9908 95.3076 34.4539 95.0978 34.1207C94.888 33.7751 94.5425 33.6023 94.0611 33.6023C93.6045 33.6023 93.0985 33.88 92.5431 34.4354V40.7852H90.192V34.5835C90.192 34.349 90.1488 34.0035 90.0625 33.5468C89.9884 33.0778 89.8835 32.6829 89.7477 32.362L91.7471 31.9547C92.0063 32.2139 92.2716 32.5903 92.5431 33.084C93.3206 32.3312 94.129 31.9547 94.9682 31.9547C96.2147 31.9547 97.0601 32.3929 97.5044 33.2691C97.776 32.9112 98.1647 32.6027 98.6707 32.3435C99.1767 32.0843 99.6827 31.9547 100.189 31.9547C101.127 31.9547 101.824 32.2263 102.281 32.7693C102.75 33.3123 102.984 34.1577 102.984 35.3055V40.7852ZM107.253 40.9518C106.413 40.9518 105.747 40.6926 105.253 40.1742C104.76 39.6559 104.513 39.0388 104.513 38.323C104.513 37.7923 104.685 37.3665 105.031 37.0457C105.389 36.7124 105.944 36.4533 106.697 36.2681L109.678 35.5276V34.7686C109.678 34.4107 109.567 34.1269 109.344 33.9171C109.135 33.7073 108.838 33.6023 108.456 33.6023C108.024 33.6023 107.049 33.9294 105.531 34.5835L104.883 33.084L106.993 32.3065C107.635 32.072 108.104 31.9547 108.4 31.9547C109.523 31.9547 110.406 32.2509 111.048 32.8433C111.702 33.4234 112.029 34.1886 112.029 35.1389V38.323C112.029 38.5575 112.066 38.9092 112.14 39.3782C112.226 39.8349 112.337 40.2236 112.473 40.5445L110.455 40.9518C110.208 40.6803 109.949 40.3038 109.678 39.8225C108.851 40.5753 108.042 40.9518 107.253 40.9518ZM108.086 39.3042C108.567 39.3042 109.098 39.0265 109.678 38.4711V36.6014L107.826 37.1382C107.234 37.311 106.938 37.638 106.938 38.1194C106.938 38.4896 107.043 38.7796 107.253 38.9895C107.462 39.1993 107.74 39.3042 108.086 39.3042ZM116.488 40.7852H114.137V34.5835C114.137 34.349 114.094 34.0035 114.008 33.5468C113.934 33.0778 113.829 32.6829 113.693 32.362L115.692 31.9547C116.075 32.3373 116.34 32.8557 116.488 33.5098C116.735 33.0161 117.062 32.6335 117.47 32.362C117.889 32.0905 118.34 31.9547 118.821 31.9547C119.093 31.9547 119.339 31.9979 119.562 32.0843L119.154 34.1022H118.543C117.963 34.1022 117.507 34.2441 117.173 34.528C116.853 34.7995 116.624 35.2561 116.488 35.8979V40.7852ZM128.714 40.7852H125.826L122.956 36.3052V40.7852H120.605V28.4189L122.956 27.9561V35.6572L125.881 32.1214H128.528L125.048 35.9904L128.714 40.7852ZM132.928 40.9518C131.533 40.9518 130.478 40.5383 129.762 39.7114C129.059 38.8722 128.707 37.7738 128.707 36.4162C128.707 35.0587 129.071 33.9788 129.799 33.1766C130.527 32.362 131.539 31.9547 132.835 31.9547C135.34 31.9547 136.593 33.2568 136.593 35.8609C136.593 36.1324 136.562 36.3607 136.501 36.5458H131.132C131.132 37.4714 131.299 38.1626 131.632 38.6192C131.977 39.0758 132.452 39.3042 133.057 39.3042C133.736 39.3042 134.625 39.0573 135.723 38.5637L136.371 40.0632L134.409 40.7852C134.075 40.8962 133.582 40.9518 132.928 40.9518ZM132.705 33.6023C132.212 33.6023 131.823 33.7751 131.539 34.1207C131.268 34.4663 131.132 34.8982 131.132 35.4166H134.149C134.149 34.2071 133.668 33.6023 132.705 33.6023ZM141.203 40.9518C140.277 40.9518 139.623 40.7234 139.241 40.2668C138.871 39.8102 138.685 39.1129 138.685 38.1749V33.7504H137.315V32.1214H138.685V29.9554L141.036 29.4926V32.1214H143.073V33.7504H141.036V38.2119C141.036 38.9401 141.333 39.3042 141.925 39.3042C142.283 39.3042 142.666 39.1931 143.073 38.9709L143.443 40.3594C142.764 40.7543 142.018 40.9518 141.203 40.9518Z" fill="#54618E"/>
<path d="M87.5079 40.7852H85.2679V37.9342H80.214L79.7142 36.4903L84.9902 28.9372H87.5079V36.1941H88.6927V37.9342H87.5079V40.7852ZM85.2679 36.1941V31.3809L81.9912 36.1941H85.2679Z" fill="#D653D2"/>
</g>
<mask id="mask0_1525_19226" style="mask-type:alpha" maskUnits="userSpaceOnUse" x="4" y="0" width="36" height="19">
<ellipse cx="21.5482" cy="9.56729" rx="17.5482" ry="8.87198" fill="url(#paint0_linear_1525_19226)"/>
</mask>
<g mask="url(#mask0_1525_19226)">
<g filter="url(#filter1_d_1525_19226)">
<ellipse cx="21.5482" cy="9.56729" rx="17.5482" ry="8.87198" fill="url(#paint1_linear_1525_19226)"/>
</g>
<g filter="url(#filter2_d_1525_19226)">
<path d="M27.1282 12.0296V2.16842C27.1282 2.01759 27.137 1.85346 27.1545 1.67602C27.1896 1.49858 27.2247 1.31671 27.2598 1.13039L11.1506 12.0296H27.1282ZM42.0399 12.0296V12.7216C42.0399 12.8192 41.9785 12.8991 41.8557 12.9612C41.7504 13.0144 41.5749 13.041 41.3292 13.041H29.3393V18.4441H27.1282V13.041H9.51858C9.25536 13.041 9.05355 13.0144 8.91316 12.9612C8.77278 12.8991 8.67626 12.8192 8.62362 12.7216L8.38672 12.0962L27.1019 -0.41333H29.3393V12.0296H42.0399Z" fill="white"/>
</g>
</g>
<defs>
<filter id="filter0_d_1525_19226" x="46.1211" y="27.9561" width="101.322" height="20.9957" filterUnits="userSpaceOnUse" color-interpolation-filters="sRGB">
<feFlood flood-opacity="0" result="BackgroundImageFix"/>
<feColorMatrix in="SourceAlpha" type="matrix" values="0 0 0 0 0 0 0 0 0 0 0 0 0 0 0 0 0 0 127 0" result="hardAlpha"/>
<feOffset dy="4"/>
<feGaussianBlur stdDeviation="2"/>
<feComposite in2="hardAlpha" operator="out"/>
<feColorMatrix type="matrix" values="0 0 0 0 0 0 0 0 0 0 0 0 0 0 0 0 0 0 0.25 0"/>
<feBlend mode="normal" in2="BackgroundImageFix" result="effect1_dropShadow_1525_19226"/>
<feBlend mode="normal" in="SourceGraphic" in2="effect1_dropShadow_1525_19226" result="shape"/>
</filter>
<filter id="filter1_d_1525_19226" x="0" y="0.695312" width="43.0957" height="25.744" filterUnits="userSpaceOnUse" color-interpolation-filters="sRGB">
<feFlood flood-opacity="0" result="BackgroundImageFix"/>
<feColorMatrix in="SourceAlpha" type="matrix" values="0 0 0 0 0 0 0 0 0 0 0 0 0 0 0 0 0 0 127 0" result="hardAlpha"/>
<feOffset dy="4"/>
<feGaussianBlur stdDeviation="2"/>
<feComposite in2="hardAlpha" operator="out"/>
<feColorMatrix type="matrix" values="0 0 0 0 0 0 0 0 0 0 0 0 0 0 0 0 0 0 0.25 0"/>
<feBlend mode="normal" in2="BackgroundImageFix" result="effect1_dropShadow_1525_19226"/>
<feBlend mode="normal" in="SourceGraphic" in2="effect1_dropShadow_1525_19226" result="shape"/>
</filter>
<filter id="filter2_d_1525_19226" x="4.38672" y="-0.41333" width="41.6523" height="26.8574" filterUnits="userSpaceOnUse" color-interpolation-filters="sRGB">
<feFlood flood-opacity="0" result="BackgroundImageFix"/>
<feColorMatrix in="SourceAlpha" type="matrix" values="0 0 0 0 0 0 0 0 0 0 0 0 0 0 0 0 0 0 127 0" result="hardAlpha"/>
<feOffset dy="4"/>
<feGaussianBlur stdDeviation="2"/>
<feComposite in2="hardAlpha" operator="out"/>
<feColorMatrix type="matrix" values="0 0 0 0 0 0 0 0 0 0 0 0 0 0 0 0 0 0 0.25 0"/>
<feBlend mode="normal" in2="BackgroundImageFix" result="effect1_dropShadow_1525_19226"/>
<feBlend mode="normal" in="SourceGraphic" in2="effect1_dropShadow_1525_19226" result="shape"/>
</filter>
<linearGradient id="paint0_linear_1525_19226" x1="44.3609" y1="-4.62788" x2="34.3445" y2="25.2332" gradientUnits="userSpaceOnUse">
<stop stop-color="#FF00AA"/>
<stop offset="1" stop-color="#8912DE"/>
</linearGradient>
<linearGradient id="paint1_linear_1525_19226" x1="44.3609" y1="-4.62788" x2="34.3445" y2="25.2332" gradientUnits="userSpaceOnUse">
<stop stop-color="#FF00AA"/>
<stop offset="1" stop-color="#8912DE"/>
</linearGradient>
</defs>
</svg>
